<svg width="17" height="17" viewBox="0 0 17 17" fill="none" xmlns="http://www.w3.org/2000/svg">
<path d="M7.79199 2.8335H2.83366C2.45794 2.8335 2.0976 2.98275 1.83192 3.24843C1.56625 3.5141 1.41699 3.87444 1.41699 4.25016V14.1668C1.41699 14.5426 1.56625 14.9029 1.83192 15.1686C2.0976 15.4342 2.45794 15.5835 2.83366 15.5835H12.7503C13.126 15.5835 13.4864 15.4342 13.7521 15.1686C14.0177 14.9029 14.167 14.5426 14.167 14.1668V9.2085" stroke="#F1F1F1" stroke-width="2" stroke-linecap="round" stroke-linejoin="round"/>
<path d="M13.1045 1.77067C13.3863 1.48888 13.7685 1.33057 14.167 1.33057C14.5655 1.33057 14.9477 1.48888 15.2295 1.77067C15.5113 2.05246 15.6696 2.43465 15.6696 2.83317C15.6696 3.23168 15.5113 3.61388 15.2295 3.89567L8.50033 10.6248L5.66699 11.3332L6.37533 8.49984L13.1045 1.77067Z" stroke="#F1F1F1" stroke-width="2" stroke-linecap="round" stroke-linejoin="round"/>
</svg>
