<svg width="13" height="17" viewBox="0 0 13 17" fill="none" xmlns="http://www.w3.org/2000/svg">
<path d="M3.66699 4.24984V2.83317C3.66699 2.45745 3.81625 2.09711 4.08192 1.83144C4.3476 1.56576 4.70794 1.4165 5.08366 1.4165H7.91699C8.29272 1.4165 8.65305 1.56576 8.91873 1.83144C9.1844 2.09711 9.33366 2.45745 9.33366 2.83317V4.24984M11.4587 4.24984V14.1665C11.4587 14.5422 11.3094 14.9026 11.0437 15.1682C10.7781 15.4339 10.4177 15.5832 10.042 15.5832H2.95866C2.58294 15.5832 2.2226 15.4339 1.95692 15.1682C1.69125 14.9026 1.54199 14.5422 1.54199 14.1665V4.24984H11.4587Z" stroke="#F1F1F1" stroke-width="2" stroke-linecap="round" stroke-linejoin="round"/>
<path d="M5.08301 7.7915V12.0415" stroke="#F1F1F1" stroke-width="2" stroke-linecap="round" stroke-linejoin="round"/>
<path d="M7.91699 7.7915V12.0415" stroke="#F1F1F1" stroke-width="2" stroke-linecap="round" stroke-linejoin="round"/>
</svg>
